<svg xmlns="http://www.w3.org/2000/svg" width="2000" height="auto" viewBox="0 0 1024 768"><path fill="#fefefe" d="M489.354 227.58c40.12-.653 71.925 10.24 105.609 31.57 10.233 6.477 20.416 14.424 30.826 21.118a125.94 125.94 0 0 0 63.616 20.007c20.928.736 41.912-2.472 62.328-6.82 3.402-.723 18.056-5.675 19.413-4.693-1.455 3.24-21.144 11.01-26.022 13.143a1811 1811 0 0 1-60.173 24.748c-44.123 17.558-90.219 36.249-134.734 52.598l-79.843 29.204c-10.721 3.906-22.65 7.12-33.067 11.825-6.84 3.026-21.763 7.33-29.602 10.002-58.28 19.86-117.08 40.5-176.263 57.396-3.602 1.028-13.993 5.624-16.769 4.657l-.12-.837c1.116-1.962 7.473-4.296 9.723-5.332 28.548-13.144 55.866-31.04 76.009-55.345 22.125-26.552 25.568-60.764 37.275-92.41 24.468-66.124 81.399-106.381 151.794-110.831m76.644 120.75 1.146-.582c6.388-2.397 24.33-8.516 28.577-12.042 1.25-3.217-7.486-8.045-9.672-10.24-37.202-37.33-87.317-54.041-137.785-30.563a113.82 113.82 0 0 0-58.354 64.231c-4.713 12.941-7.217 26.538-8.738 40.146-.364 3.256-2.804 10.872-1.716 13.726 4.669 2.425 24.418-6.185 30.432-7.655l1.963-.954c42.117-12.485 84.891-29.307 126.046-44.858 5.339-2.017 24.438-8.58 28.101-11.21"/><path fill="#fefefe" fill-opacity=".969" d="M409.888 405.351c-6.722-39.081 19.788-80.353 56.95-92.454 6.03-1.964 13.655-3.156 19.925-4.356 1.691.418 2.854.172 3.11 2.077-11.868 1.548-20.78 3.34-31.443 8.492-26.397 12.754-45.784 40.477-46.622 69.968-.13 4.627.421 10.95.043 15.319z"/><path fill="#fefefe" fill-opacity=".953" d="M515.215 310.813c18.964 3.806 39.494 17.933 50.627 33.792.772 1.097 1.159 1.798 1.302 3.143l-1.146.581c-2.595-2.435-7.732-9.163-11.02-12.547a82.13 82.13 0 0 0-46.384-24.116l.27-.715c2.228.018 4.124-.025 6.35-.138"/><path fill="#fefefe" fill-opacity=".851" d="M486.763 308.54c12.483-.656 16.068-.274 28.452 2.273-2.227.113-4.123.156-6.352.138l-.27.715c-7.634-.284-9.093-1.662-18.72-1.048-.256-1.905-1.419-1.659-3.11-2.077"/><path fill="#fefefe" d="M598.069 394.81c11.603 1.407 28.567-1.733 39.015 4.775 22.739 14.166-1.43 66.887-11.754 83.343-43.968 70.09-135.632 91.314-205.942 47.241-7.217-3.76-19.832-13.462-25.144-19.7-17.386-20.42 7.972-37.626 22.186-49.552 2.813 2.403 5.567 5.805 8.009 8.627 30.285 34.982 82.786 44.333 123.31 20.41a100.36 100.36 0 0 0 49.008-71.767c.401-2.698.678-5.2.845-7.928.266-4.38-.822-11.387.467-15.449"/><path fill="#fefefe" fill-opacity=".969" d="M573.255 413.166c1.196-1.857 1.565-2.586 2.468-4.58l.865.096c-1.862 18.854-13.726 37.304-28.046 49.331-28.956 24.322-72.358 26.3-102.531 3.061-3.172-2.444-7.978-5.888-9.88-9.416l.32-.458c2.393.642 13.057 9.842 16.97 12.23 45.025 27.45 106.055 3.533 119.362-47.997a29 29 0 0 0 .472-2.267"/><path fill="#f7f3fc" fill-opacity=".451" d="M573.255 413.166c1.528-4.177 2.557-11.116 3.4-15.724.185 2.388.905 9.381-.067 11.24l-.865-.096c-.903 1.994-1.272 2.723-2.468 4.58"/></svg>
