<svg xmlns="http://www.w3.org/2000/svg" width="1024" height="1024" viewBox="0 0 1024 1024"><defs><linearGradient id="a" x1="469.976" x2="429.949" y1="675.85" y2="482.109" gradientUnits="userSpaceOnUse"><stop offset="0" stop-color="#3e210c"/><stop offset="1" stop-color="#724c1f"/></linearGradient></defs><path fill="url(#a)" d="M496.296 461.906c2.98.895 5.725 2.005 8.621 3.132 16.337 6.555 30.796 15.404 42.688 28.49 3.573 3.93 6.522 7.912 9.947 11.919 6.02-12.959 8.61-17.995 11.893-32.021 10.025 22.721 7.806 48.786-8.373 68.165l-4.899-3.109c2.344-11.851 2.419-16.784 2.279-28.588-1.744 8.44-4.393 16.142-7.59 24.118-6.2-2.003-10.366-3.17-16.815-4.554 15.785 11.076 33.783 20.533 49.706 31.366 8.446 7.508-.246 21.789-5.375 28.013-7.969 9.671-14.653 22.754-23.589 30.557-1.251 1.092-28.889 5.378-31.317 5.105-1.278-4.129 1.745-12.245 3.77-16.014 4.711-8.769 10.021-8.176 17.158-2.984 9.665-4.708 20.45-19.558 22.421-30.095-7.016-4.198-15.139-5.232-22.943-7.276-9.462-2.479-18.87-5.4-27.891-9.19-11.727-4.74-14.396-16.545-19.631-27.047 2.567 15.069 2.948 28.338 19.785 33.8-23.374 8.999-43.976 7.466-68.134 6.352-5.867-.27-14.927 1.559-20.705 2.844 2.216-12.429 1.22-13.935 1.113-26.09-5.075 25.89-8.679 41.364-31.622 57.738-11.694 8.345-30.099 14.541-39.914 23.291-5.103 4.548-12.442 37.173-12.632 44.265 4.859 9.499 9.371 16.705 13.63 26.71-4.459.054-20.829.961-24.017-1.491-1.332-3.159-.875-9.293-.809-12.92-1.98-2.075-3.849-3.88-5.379-6.324.566-9.573 6.523-24.868 8.496-35.704 1.248-6.857 2.884-24.138 4.655-29.072l.6-.543c4.032-3.61 8.068-6.064 12.18-9.312 8.492-6.707 12.897-16.47 13.476-27.177.646-11.949-.314-20.978 2.589-32.9 5.716-24.223 19.534-36.908 43.52-42.908a104.5 104.5 0 0 1 12.392-2.168c3.319-1.267 13.066-2.364 17.173-3.444 20.01-5.26 33.214-12.601 47.391-27.432z"/><defs><linearGradient id="b" x1="431.163" x2="442.389" y1="487.765" y2="519.95" gradientUnits="userSpaceOnUse"><stop offset="0" stop-color="#bc8d56"/><stop offset="1" stop-color="#ffeb9d"/></linearGradient></defs><path fill="url(#b)" d="M496.296 461.906c2.98.895 5.725 2.005 8.621 3.132-1.285 2.109-2.041 3.607-3.818 5.345-15.02 18.961-40.369 31.94-63.691 36.75-32.046 6.611-50.473 5.192-65.457 38.097-.057.425-.231.881-.364 1.306-1.454-.269-.772.005-1.919-1.176 5.716-24.223 19.534-36.908 43.52-42.908a104.5 104.5 0 0 1 12.392-2.168c3.319-1.267 13.066-2.364 17.173-3.444 20.01-5.26 33.214-12.601 47.391-27.432z"/><path fill="#613c1a" d="M369.668 545.36c5.716-24.223 19.534-36.908 43.52-42.908-1.728 2.648-4.439 2.906-7.275 4.225-15.638 7.282-24.941 14.822-32.106 31.429-.603 1.397-2.027 5.766-1.856 7.124-.057.425-.231.881-.364 1.306-1.454-.269-.772.005-1.919-1.176"/><path fill="#bf9354" d="M413.188 502.452a104.5 104.5 0 0 1 12.392-2.168c-2.033 3.579-15.758 6.564-19.667 6.393 2.836-1.319 5.547-1.577 7.275-4.225"/><path fill="#bf9354" d="M496.296 461.906c2.98.895 5.725 2.005 8.621 3.132-1.285 2.109-2.041 3.607-3.818 5.345 1.007-2.248 2.101-3.46.706-5.623-4.89-1.017-8.338 3.599-11.661 4.648z"/><defs><linearGradient id="c" x1="491.278" x2="485.468" y1="493.916" y2="364.952" gradientUnits="userSpaceOnUse"><stop offset="0" stop-color="#623c1b"/><stop offset="1" stop-color="#956034"/></linearGradient></defs><path fill="url(#c)" d="M503.051 361.678c3.01.445 8.301-.127 9.353.486l-7.259 2.189c-4.866-.197-15.205 2.521-19.23 4.763l2.216.442c5.875-2.679 14.127-3.596 20.477-4.458 6.565-.294 8.571.197 10.523 7.112.279.991-.157 1.144-.7 1.804-4.121.88-9.355-3.007-11.388-2.38 1.182 3.182 7.06 4.857 7.355 8.855-2.82 3.698-6.431 1.398-10 .13-11.069 2.654-17.772-.006-25.552 1.613-27.008 5.62-27.043 17.022-55.973 10.621 22.53 10.506 28.992 2.687 50.074-4.899 8.292-2.984 29.126-2.772 38.527-2.381l5.767-3.523c12.559 11.153 25.761 22.062 38.176 33.246l1.448 1.064c2.207 1.73 6.661 4.765 6.807 7.619.731 14.254-1.153 27.981.44 42.31.845 7.606-4.736 20.404-7.781 27.27-8.723-8.669-14.099-14.416-24.393-21.662-4.153-2.124-8.508-5.01-12.978-7.236-7.465-3.717-12.68-5.475-20.501-7.792.45-8.073.134-13.092-3.836-20.21l-3.353-2.723c-5.504-4.842-9.915-8.573-13.105-15.437-2.194-3.276-3.728-8.29-5.018-12.112 20.146-1.189 19.935 7.896 30.497 9.042-1.779-5.822-26.166-22.287-31.692-24.942 2.644 2.774 6.555 7.099 8.599 10.217-21.428 5.368-42.612 6.844-61.945-6.65-3.572-2.494-7.316-7.461-7.826-11.889 1.594-6.066 16.94-12.032 22.481-14.113 7.438-2.793 17.177-1.956 25.028-1.286 7.607 1.115 21.897 2.133 29.149-.387 4.927-1.713 9.562-3.633 14.801-4.565z"/><path fill="#ddb674" d="M473.147 406.389c20.146-1.189 19.935 7.896 30.497 9.042l.219-.025c2.749-1.148 13.809.021 17.672.065 6.048.07 13.405-.657 19.285-.207-11.248 2.823-22.71 6.198-34.342 4.44-2.885-.436-7.185-1.954-8.99-.258-.099 4.003 6.686 7.32 9.931 9.193-3.775-.241-5.42-.422-9.109-1.197 1.778 3.817 2.607 5.243 5.663 8.331 18.143 18.333 27.504-14.587 46.34-9.145 3.881 1.121 9.709 5.285 10.297 9.315l-.602.274c-3.011-1.357-4.986-3.941-7.881-4.962-10.22-3.606-19.622 4.354-26.021 10.967.744 2.21 1.825 5.75 2.674 7.809-2.007-.242-14.333-6.531-18.221-8.003l.967 2.638c-3.428-1.329-8.27-2.738-11.862-3.903-1.727-2.064-2.611-3.608-5.041-4.102l-3.353-2.723c-5.504-4.842-9.915-8.573-13.105-15.437-2.194-3.276-3.728-8.29-5.018-12.112"/><path fill="#bf9354" d="M480.467 417.952c5.273 2.943 11.847 8.841 16.044 13.165 3.677 3.788 8.095 10.538 14.048 10.911l.967 2.638c-3.428-1.329-8.27-2.738-11.862-3.903-1.727-2.064-2.611-3.608-5.041-4.102l-3.353-2.723c-5.504-4.842-9.915-8.573-13.105-15.437 1.065 1.073 2.957 3.246 4.167 3.815-.718-1.452-1.262-2.865-1.865-4.364"/><path fill="#8a562a" d="M478.165 418.501c1.065 1.073 2.957 3.246 4.167 3.815 2.173 2.313 7.81 8.288 8.688 10.9l.25.722c-5.504-4.842-9.915-8.573-13.105-15.437"/><path fill="#8a582e" d="M473.147 406.389c20.146-1.189 19.935 7.896 30.497 9.042l.219-.025 1.352 1.353c-3.094 2.334-20.193-9.144-27.475-7.602l-.581.703c.466 2.554 1.971 5.862 3.308 8.092.603 1.499 1.147 2.912 1.865 4.364-1.21-.569-3.102-2.742-4.167-3.815-2.194-3.276-3.728-8.29-5.018-12.112"/><path fill="#613c1a" d="M494.623 436.661c2.43.494 3.314 2.038 5.041 4.102 3.592 1.165 8.434 2.574 11.862 3.903 17.089 7.346 12.563 15.805 20.427 25.495l-.015 1.738c-4.153-2.124-8.508-5.01-12.978-7.236-7.465-3.717-12.68-5.475-20.501-7.792.45-8.073.134-13.092-3.836-20.21"/><path fill="#ddb674" d="M503.051 361.678c3.01.445 8.301-.127 9.353.486l-7.259 2.189c-4.866-.197-15.205 2.521-19.23 4.763l2.216.442c-6.761 2.549-30.209.919-39.231 1.991-12.345 1.467-16.835 3.026-28.763 6.692 10.594-8.839 18.231-9.939 31.5-10.483.805-.674 5.334-.877 6.652-.99 7.607 1.115 21.897 2.133 29.149-.387 4.927-1.713 9.562-3.633 14.801-4.565z"/><path fill="#8a582e" d="M503.051 361.678c3.01.445 8.301-.127 9.353.486l-7.259 2.189c-4.866-.197-15.205 2.521-19.23 4.763-.519-.156-.406-.178-.941-.118-11.376 1.277-22.043-.871-33.337-1.24.805-.674 5.334-.877 6.652-.99 7.607 1.115 21.897 2.133 29.149-.387 4.927-1.713 9.562-3.633 14.801-4.565z"/><defs><linearGradient id="d" x1="533.521" x2="536.876" y1="468.507" y2="448.5" gradientUnits="userSpaceOnUse"><stop offset="0" stop-color="#a17236"/><stop offset="1" stop-color="#c79856"/></linearGradient></defs><path fill="url(#d)" d="M510.559 442.028c3.888 1.472 16.214 7.761 18.221 8.003l1.064 1.607c2.652 1.484 15.691.485 19.61.321l.155-9.762c.475 2.098.73 5.672 1.44 7.079l.497-.948-.635.727-.116-.6.949-.627.402-2.951c.225 2.582.41 4.556.363 7.175 3.492.366 5.769.487 9.111 1.589-3.808 1.34-5.455 1.648-9.478 2.334l-2.457.072c-4.821-.958-13.629-.534-19.468-1.19 1.068 5.384 1.474 9.81 1.736 15.304-7.864-9.69-3.338-18.149-20.427-25.495z"/><path fill="#bf9354" d="m549.685 456.047 2.457-.072c2.473 7.819 1.898 14.521.795 22.444-1.882-7.878-1.409-15.329-3.252-22.372"/><path fill="#ddb674" d="M549.609 442.197c-.125-3.683-.155-6.782-.058-10.464 1.969 5.396 2.345 7.392 2.595 13.144l-.402 2.951-.949.627.116.6.635-.727-.497.948c-.71-1.407-.965-4.981-1.44-7.079"/><path fill="#ddb674" d="M556.865 416.362c-2.443 1.156-7.651-.594-9.693-2.106 2.29-.367 5.803.573 8.245 1.042z"/><path fill="#613c1a" d="M353.503 513.165c10.05-.705 15.271.462 24.658 3.796l-.25.338c-3.135 4.161-5.353 8.385-7.899 12.914-3.785 1.65-8.519 3.715-11.567 6.571-12.382 11.601-12.275 30.543-22.378 44.944-10.117 14.422-21.943 19.118-38.329 22.506 6.191-4.005 8.695-6.005 14.028-11.14a65 65 0 0 1-15.181 4.883c-14.324 2.656-25.746-.983-37.477-9.102-1.06-.886-.786-.334-1.136-1.509 2.437-.832 6.961-.183 9.811-.31 9.228-.411 15.344-2.311 23.564-6.068-14.222.925-20.883-1.987-31.645-11.317 24.088 6.292 34.569-.665 50.801-17.309-7.929 3.728-11.715 4.732-20.373 4.642 5.354-3.842 9.639-6.044 14.667-10.895 16.948-16.351 23.761-29.02 48.706-32.944"/><defs><linearGradient id="e" x1="611.001" x2="566.388" y1="366.464" y2="247.619" gradientUnits="userSpaceOnUse"><stop offset="0" stop-color="#82532b"/><stop offset="1" stop-color="#a3683b"/></linearGradient></defs><path fill="url(#e)" d="M601.746 248.901c-.986-4.187-2.783-14.615 2.468-16.26l.941.443c2.047 5.748-.256 11.947 3.258 17.706 7.133 11.693 18.373 17.878 29.64 24.889 18.471 11.492 38.838 27.864 44.008 50.077 1.124 4.829.991 10.228.894 15.151-4.976 1.209-9.207 1.932-14.231 2.771-.778-22.544-4.049-33.586-21.135-50.298-14.147-13.838-35.07-21.58-44.434-39.572-21.144 25.809-40.69 53.238-61.714 79.186-2.353 2.904 2.006 6.186-1.348 8.86-.052 1.683-.144 3.489-.129 5.164l.353.862c.283 4.718.791 8.366-.274 13.011-6.156.251-10.343-.127-16.38-1.644-1.355 1.936-1.686 2.486-3.381 4.069l-1.035.179c-1.706-2.294 2.743-8.385-5.075-7.335l-.619 1.135c1.357 1.597 1.644 1.347 1.609 2.931l-.526.675c-3.448-.332-5.691-1.342-9.373-1.411-3.341-.718-5.758-.302-9.094.057 1.05-4.279.915-6.177.654-10.445-4.848-7.286-7.103-9.58-10.786-17.697-.905-2.17-1.56-4.283-2.291-6.513 4.695-14.364 12.837-17.702 26.641-20.086 3.877-.7 8.485-2.704 12.458-2.704 9.14 0 14.018 3.365 10.505 12.582-.105 4.048 3.066 11.603 4.603 15.735 5.173-5.642 10.659-12.556 15.272-18.762 15.695-21.117 32.989-41.617 48.521-62.756"/><defs><linearGradient id="f" x1="508.896" x2="508.721" y1="347.021" y2="313.048" gradientUnits="userSpaceOnUse"><stop offset="0" stop-color="#d4aa66"/><stop offset="1" stop-color="#f4d795"/></linearGradient></defs><path fill="url(#f)" d="M483.746 324.892c4.695-14.364 12.837-17.702 26.641-20.086 3.877-.7 8.485-2.704 12.458-2.704 9.14 0 14.018 3.365 10.505 12.582l-1.43.136c-5.696.285-13.888.295-19.111 1.963.581 4.409.897 8.074.834 12.519-.042 2.902-.777 7.589 1.019 9.785-1.109 3.667.743 4.743 3.324 7.115 4.325 2.821 6.235 3.141 11.3 2.016l.798-.159.477-.101c.644 1.867.641 2.284 2.242 3.478 2.197.723 3.877.159 6.208-.25 1.02-.911.894-1.683 1.306-3.306.283 4.718.791 8.366-.274 13.011-6.156.251-10.343-.127-16.38-1.644-1.355 1.936-1.686 2.486-3.381 4.069l-1.035.179c-1.706-2.294 2.743-8.385-5.075-7.335l-.619 1.135c1.357 1.597 1.644 1.347 1.609 2.931l-.526.675c-3.448-.332-5.691-1.342-9.373-1.411-3.341-.718-5.758-.302-9.094.057 1.05-4.279.915-6.177.654-10.445-4.848-7.286-7.103-9.58-10.786-17.697-.905-2.17-1.56-4.283-2.291-6.513"/><path fill="#8a582e" d="M497.485 346.953c.551.306.253.254.898.132-3.99-14.102 5.929-24.712 10.755-11.418.224 3.244 1.766 11.881 2.931 14.781l.422-.334c.073-1.012.067-.462.001-1.662 1.755-1.886 2.776-2.021 5.494-2.25 4.325 2.821 6.235 3.141 11.3 2.016l.798-.159.477-.101c.644 1.867.641 2.284 2.242 3.478 2.197.723 3.877.159 6.208-.25 1.02-.911.894-1.683 1.306-3.306.283 4.718.791 8.366-.274 13.011-6.156.251-10.343-.127-16.38-1.644-1.355 1.936-1.686 2.486-3.381 4.069l-1.035.179c-1.706-2.294 2.743-8.385-5.075-7.335l-.619 1.135c1.357 1.597 1.644 1.347 1.609 2.931l-.526.675c-3.448-.332-5.691-1.342-9.373-1.411-3.341-.718-5.758-.302-9.094.057 1.05-4.279.915-6.177.654-10.445.934-1.403.839-.68.662-2.149"/><path fill="#bf9354" d="m512.069 350.448.422-.334c.073-1.012.067-.462.001-1.662 1.755-1.886 2.776-2.021 5.494-2.25 4.325 2.821 6.235 3.141 11.3 2.016l.798-.159.477-.101c.644 1.867.641 2.284 2.242 3.478 2.197.723 3.877.159 6.208-.25.086 2.378.536 5.481-.786 7.277-5.013 1.535-23.783-4.18-26.156-8.015"/><path fill="#fcfaf5" d="M508.606 354.948c-.224-3.16-.121-6.205-2.686-8.335-5.062-4.202-8.502-5.313-6.37-12.719l.414-.102c1.185 2.002 1.37 4.416 1.769 6.766 12.367 6.485 3.732 8.132 12.439 15.602l-.619 1.135z"/><path fill="#8a582e" d="M483.746 324.892c4.695-14.364 12.837-17.702 26.641-20.086 3.877-.7 8.485-2.704 12.458-2.704 9.14 0 14.018 3.365 10.505 12.582l-1.43.136c-2.089-4.251-7.813-3.065-11.978-2.601-9.162 1.02-28.656 4.49-33.939 12.957l2.013 5.764-1.001.765-.978-.3c-.905-2.17-1.56-4.283-2.291-6.513"/><defs><linearGradient id="g" x1="497.095" x2="496.721" y1="344.988" y2="326.315" gradientUnits="userSpaceOnUse"><stop offset="0" stop-color="#b88848"/><stop offset="1" stop-color="#e0b76f"/></linearGradient></defs><path fill="url(#g)" d="m488.016 330.94-2.013-5.764.481.179c7.93 2.9 20.169.866 23.104 3.373-1.471.601-1.014.43-2.665.581.897 1.335 1.608 1.176 2.763 3.157.199 1.758.276 1.656-.548 3.201-4.826-13.294-14.745-2.684-10.755 11.418-.645.122-.347.174-.898-.132.177 1.469.272.746-.662 2.149-4.848-7.286-7.103-9.58-10.786-17.697l.978.3z"/><path fill="#8a562a" d="M488.016 330.94c2.969 6.416 5.461 10.173 9.469 16.013.177 1.469.272.746-.662 2.149-4.848-7.286-7.103-9.58-10.786-17.697l.978.3z"/><path fill="#ddb674" d="M514.662 339.087c4.003 4.608 5.792 6.044 11.401 8.762 3.721-3.019 8.791-7.202 14.03-5.995-.052 1.683-.144 3.489-.129 5.164l.353.862c-.412 1.623-.286 2.395-1.306 3.306-2.331.409-4.011.973-6.208.25-1.601-1.194-1.598-1.611-2.242-3.478l-.477.101-.798.159c-5.065 1.125-6.975.805-11.3-2.016-2.581-2.372-4.433-3.448-3.324-7.115"/><path fill="#8a562a" d="M530.561 347.958c2.637-1.08 6.453-4.215 8.897-3.241l.506 2.301.353.862c-.412 1.623-.286 2.395-1.306 3.306-2.331.409-4.011.973-6.208.25-1.601-1.194-1.598-1.611-2.242-3.478"/><path fill="#fcfaf5" d="M528.153 326.735c2.511-.041 3.696-.617 4.493 1.85-.637 1.813-.855 1.815-2.26 3.079l-1.118-.142c-2.263-1.14-5.347-3.06-7.61-4.387z"/><path fill="#8a582e" d="M577.361 369.507c10.65-5.258 17.394-2.118 28.592-3.095 4.851-.423 11.591-4.342 15.399-4.731 12.519-1.279 25.711-.99 38.417-1.693q.407 3.815 1.082 7.593l.224 2.156c.359 1.886.681 1.789-.007 3.161-3.869 2.177-20.779 8.929-25.159 10.307-12.411 5.748-23.766.551-34.475 5.651-6.26 3.895-22.716 7.949-30.319 6.004-5.987-1.531-.272-14.672 1.323-18.435-2.728 2.64-7.147 7.288-9.283 10.288 2.074 13.434 3.908 16.369.742 30.534-5.178-3.46-41.383-34.097-42.199-37.847-.372-1.708 1.716-3.717 2.706-4.915 11.581-3.807 34.096-7.654 46.701-7.098 1.668.074 4.619 1.404 6.256 2.12"/><path fill="#ddb674" d="M625.838 377.045c7.335-2.463 27.724-7.968 35.013-9.464l.224 2.156c.359 1.886.681 1.789-.007 3.161-3.869 2.177-20.779 8.929-25.159 10.307-12.411 5.748-23.766.551-34.475 5.651l-1.645-1.47c-6.684 2.874-16.391 6.139-23.845 5.63-6.183-.423-4.766-5.065-3.902-9.278 4.812-.737 11.023-1.038 15.983-1.544 11.519-1.175 18.698-5.446 28.324-11.183-3.378 3.916-7.322 7.543-10.831 11.512 6.69-1.189 13.54-3.764 20.32-5.478"/><path fill="#bf9354" d="M625.838 377.045c7.335-2.463 27.724-7.968 35.013-9.464l.224 2.156c.359 1.886.681 1.789-.007 3.161-3.869 2.177-20.779 8.929-25.159 10.307 1.853-1.338 1.914-1.397 3.141-3.354a405 405 0 0 0 9.048-4.141c-2.43-1.106-15.969 2.054-22.26 1.335"/><path fill="#8a582e" d="M661.075 369.737c.359 1.886.681 1.789-.007 3.161-3.869 2.177-20.779 8.929-25.159 10.307 1.853-1.338 1.914-1.397 3.141-3.354a405 405 0 0 0 9.048-4.141c4.425-2.164 8.48-3.571 12.977-5.973"/><path fill="#8a562a" d="M599.789 387.386c10.978-4.58 11.723-2.604 23.272-3.265 4.698-.268 11.598-2.666 15.989-4.27-1.227 1.957-1.288 2.016-3.141 3.354-12.411 5.748-23.766.551-34.475 5.651z"/><path fill="#613c1a" d="M442.284 579.704c4.55-.685 18.272.445 23.724.827-7.347 17.565-15.812 24.611-31.279 35.445-2.21 1.548-10.862 7.148-9.067 10.614 10.908 21.059 37.203 31.872 44.015 55.42.388 1.341-.011 2.054-.689 3.079l-1.451.219a201 201 0 0 1-21.061-1.231c-.072-3.481.311-8.398.469-11.996-6.157-9.917-21.053-25.025-30.115-32.544-6.224-5.163-12.62-9.15-18.559-15.271 4.639-8.612 12.976-14.877 17.708-22.432 9.858-15.74 5.667-19.679 26.305-22.13"/><path fill="#613c1a" d="M581.004 509.607c14.244-.684 27.406.211 41.467.118 13.698 7.016 8.716 19.862 10.367 31.944 1.234 9.03 3.206 18.498 4.873 27.496-7.66 13.563-11.244 23.235-22.107 34.188-2.644-3.245-3.973-6.428-5.688-10.191-4.908-13.34-1.251-14.845 10.62-20.157-.676-7.88 1.164-47.667-11.898-43.075-12.911 4.54-26.372 9.628-39.935 13.255 9.318-15.137 8.311-16.828 12.301-33.578"/><path fill="#613c1a" d="M674.356 374.658c4.261.852 9.124.702 13.377-.171 10.302 22.974-1.635 49.32-15.876 67.864-6.576 8.563-13.925 15.133-19.584 24.713-7.797 13.198-6.366 20.687-2.898 34.615-5.996-4.71-6.764-6.014-8.042-13.298-7.106-7.062-16.253-14.158-24.028-20.653l-32.615-27.762c-3.125-2.518-18.006-13.562-16.569-17.926 3.713-.081 21.517 16.369 25.707 19.943a3143 3143 0 0 1 47.162 40.669c.94-7.304 2.474-13.398 5.724-20.101 3.512-7.243 8.454-13.587 13.141-20.212 9.583-13.491 17.647-29.157 18.467-45.981.361-7.421-3.46-14.445-3.966-21.7"/><path fill="#613c1a" d="M701.689 331.522c5.166.644 9.955 1.315 15.062 2.397 5.717 1.21 11.464 3.145 17.255 3.592-8.777 5.24-19.593 11.91-28.717 16.346l1.059-10.124a7161 7161 0 0 1-150.906 22.702c-9.44 1.527-19.49 3.211-29.002 4.492-1.973.266-3.609-.081-5.098-1.436l.179-.724c2.951-2.672 13.281-3.305 17.672-3.898l27.455-3.803 82.902-12.443c18.225-2.701 37.723-5.135 55.653-8.699-1.296-2.594-3.09-5.629-3.514-8.402"/><path fill="#ddb674" d="M705.902 333.914c5.352-.067 13.513 1.847 18.646 3.178l.081.641a187 187 0 0 1-13.762 1.337c-1.65-1.633-3.346-3.469-4.965-5.156"/><path fill="#613c1a" d="M675.398 350.724c4.682-.662 9.279 1.433 9.042 6.65-2.267 3.215-5.697.883-8.647-.386-2.094 5.049-2.421 8.162-2.991 13.621.112.974.17.451-.365 1.535-2.026.664-4.91.402-7.135.36-1.726-7.924-4.009-16.41 3.796-21.36z"/><path fill="#613c1a" d="M688.512 360.6c1.483-.055 2.369.276 3.39 1.296-.623 4.55-7.701 4.274-11.026 4.308l-1.72.004c-1.043-1.125-.64-.444-.614-2.516 2.079-2.959 4.877-1.903 9.326-2.938z"/><path fill="#613c1a" d="M684.452 349.321c5.664.555 9.038 2.399 7.314 8.687-5.928 1.189-6.645-4.237-7.314-8.687"/><path fill="#613c1a" d="M677.599 367.435c2.775.297 10.352-.693 11.55 1.148l-.993 1.852c-3.078 1.81-6.257 2.606-9.482.812-1.254-1.769-.858-1.328-1.075-3.812"/><defs><linearGradient id="h" x1="502.885" x2="503.741" y1="358.705" y2="362.597" gradientUnits="userSpaceOnUse"><stop offset="0" stop-color="#fff" stop-opacity="0"/><stop offset="1" stop-color="#fffeff" stop-opacity=".035"/></linearGradient></defs><path fill="url(#h)" d="M505.263 359.49c3.682.069 5.925 1.079 9.373 1.411l.848.103-.274.809c-2.832.962-.723-1.201-2.806.351-1.052-.613-6.343-.041-9.353-.486l2.461-.496c-1.67-.316-6.251.653-9.178.545l-.238-.501c2.406-1.683 6.031-1.027 9.167-1.736"/><path fill="#fcfaf5" fill-opacity=".012" d="M485.915 369.116c4.025-2.242 14.364-4.96 19.23-4.763 1.634.575 1.639.617 3.463.747-6.35.862-14.602 1.779-20.477 4.458z"/></svg>