<svg xmlns="http://www.w3.org/2000/svg" width="500" height="500" viewBox="0 0 500 500"><path fill="#de813d" d="M234.187 243.916c2.258.184 5.843 1.817 8.034 2.605 13.831 4.977 22.226 13.632 31.214 24.699.69-2.466 3.188-7.757 4.235-10.492.686-1.792 2.842-8.229 3.468-9.332l.388-.031c.765 1.15.663 1.954 1.124 3.045 4.252 10.058 2.522 22.338-1.835 32.079-.807 1.804-3.639 6.866-5.727 7.602-.898-.027-2.503-1.076-2.454-1.67.466-5.623 1.467-10.446.928-16.189-1.312 4.344-2.76 9.453-4.687 13.526-4.03-1.378-6.339-1.787-10.524-2.591 1.304.861 3.179 1.855 4.576 2.622 5.557 3.053 10.662 6.782 16.024 10.159 3.546 2.232 7.579 4.097 10.886 6.648 1.098.847 1.963 1.725 2.229 3.079.757 3.855.459 6.579-1.767 9.859-2.668 3.932-5.453 7.671-8.31 11.464-3.116 4.137-6.095 8.853-9.713 12.512-.562.605-1.508 1.032-2.345 1.123-6.274.685-12.325 2.282-18.517 3.406l-.521-.329c-.523-1.338.238-4.79.678-5.881 2.678-6.649 4.088-12.274 12.108-7.248.574.316 1.933.055 2.426-.283 5.993-4.11 10.846-11.531 13.165-18.297-2.589-1.301-5.487-2.4-8.331-2.964-6.667-1.324-13.174-3.116-19.487-5.632-3.834-1.528-8.722-2.047-11.094-5.761-2.529-3.801-4.037-8.158-6.344-12.097l-.195-.33c1.173 5.111 2.536 13.499 6.473 17.436.831.831 4.445 1.867 5.205 3.501l-.162.419c-1.149.704-2.686.956-4.031 1.28-5.077 2.241-19.492 3.005-25.124 2.878-10.298-.231-16.294-1.611-26.525 1.236.845-4.576.752-10.714.176-15.301-2.607 11.432-2.223 15.155-9.313 25.136-9.491 13.361-24.419 16.905-36.63 24.759-3.129 2.013-8.41 24.928-8.411 29.881 1.808 2.877 8.416 12.181 7.77 15.351-1.032.787-12.909.436-15.198.431-.12-2.993-.329-6.059-.063-9.035-.817-1.119-3.409-3.915-3.148-5.261 1.832-9.45 4.981-18.639 6.35-28.251.356-2.504.407-10.311 2.003-11.938 4.835-4.927 11.293-8.058 14.549-14.699 2.493-4.365 2.159-10.606 2.099-15.598-.258-21.604 10.322-38.056 32.317-42.347 5.158-1.006 11.257-1.92 16.586-3.181a72.4 72.4 0 0 0 17.236-6.61c8.634-4.654 11.702-8.751 18.209-15.388"/><path fill="#b35020" d="M249.022 193.258c7.663 6.377 14.725 12.84 22.221 19.13.981.803 1.523 1.318 2.408 2.228 1.28.963 2.593 2.286 3.597 3.538.63 3.549.616 5.636-.019 9.22-.06.71-.101 1.481-.231 2.177-.091 2.455-.237 5.076-.208 7.52l.151 1.689c.92 5.57 1.531 7.918-.297 13.325-.382 1.951-2.3 8.905-3.945 10.196-.336.263-.535.175-1.006.187-1.417-.629-2.582-2.125-3.591-3.294-2.054-2.377-4.287-4.309-6.696-6.305-1.446-.82-2.806-1.955-4.312-2.88-.618-.381-1.177-.819-1.759-1.253-5.031-2.799-10.164-5.484-15.698-7.158-1.335-.404-2.588-.703-3.831-1.359-.822-1.241-.788-8.883-.868-10.963-.433-.315-1.556-1.69-2.292-2.283-7.134-5.742-10.878-10.552-13.939-19.359 2.996-.154 5.054-.502 8.032.105 2.66.543 10.162 6.339 12.004 6.02l.208-.416c-1.744-1.211-5.504-4.942-7.318-6.576-3.164-2.852-6.072-5.196-9.321-7.888 2.395-1.033 10.175-.993 13.102-.932 6.914.143 8.309.08 13.608-4.669"/><path fill="#de813d" d="M249.022 193.258c7.663 6.377 14.725 12.84 22.221 19.13.981.803 1.523 1.318 2.408 2.228 1.28.963 2.593 2.286 3.597 3.538.63 3.549.616 5.636-.019 9.22-.049-.171-.103-.399-.203-.539-5.981-8.31-14.308-7.977-21.82-1.914-1.949 1.574-4.852 4.239-7.027 5.223-3.85-.824-12.694-3.605-12.754-8.484.372-.13 4.364.093 5.396.066-1.983-1.021-6.149-3.144-6.515-5.516.169-.382.536-.97.907-.972 1.87-.009 6.575 1.555 8.197 1.572 5.568.058 14.63-1.715 19.548-3.856-7.771.476-16.263 1.62-24.007.369-1.744-1.211-5.504-4.942-7.318-6.576-3.164-2.852-6.072-5.196-9.321-7.888 2.395-1.033 10.175-.993 13.102-.932 6.914.143 8.309.08 13.608-4.669"/><path fill="#b35020" d="M271.243 212.388c.981.803 1.523 1.318 2.408 2.228-1.048.168-5.171-.926-6.441-1.278l.13-.228c1.734-.533 2.497.097 3.903-.722"/><path fill="#b35020" d="M244.566 209.177c1.24.029 1.694-.15 2.264 1.009-.12.905-.165.884-.665 1.605-1.015-.202-1.674-.293-2.258-1.133.045-.948-.018-.61.659-1.481"/><path fill="#de813d" d="M253.399 230.749c5.682-6.146 13.898-11.574 20.905-3.624.696.789 1.782 1.964 2.694 2.426-.091 2.455-.237 5.076-.208 7.52-1.996-.227-4.424-.109-6.466-.071-.001-2.607-.894-10.893-2.547-12.834-.611.871.323 10.315.227 12.89-3.846.017-8.796.381-12.525-.09-.996-2.386-1.418-3.703-2.08-6.217"/><path fill="#de813d" d="m234.938 229.256.285.118c8.737 3.519 13.558 2.743 18.328 13.249.706 1.556 1.667 4.411 1.784 6.113-5.031-2.799-10.164-5.484-15.698-7.158-1.335-.404-2.588-.703-3.831-1.359-.822-1.241-.788-8.883-.868-10.963"/><path fill="#de813d" d="M255.869 239.27c3.314-.091 9.123-.396 12.283-.069l.131.013c.805 5.212 1.038 8.04.987 13.301-1.593.033-6.782 0-7.864.354-1.446-.82-2.806-1.955-4.312-2.88.606-1.489-.793-8.869-1.225-10.719"/><path fill="#de813d" d="m270.468 239.026 6.473-.266c.92 5.57 1.531 7.918-.297 13.325-1.288.169-3.622.172-5.001.211-.155-4.466-.687-8.831-1.175-13.27"/><path fill="#de813d" d="M143.167 276.601c4.413-.126 10.075 1.336 14.198 2.823-2.714 2.267-3.787 5.497-5.838 7.547-2.858 2.584-6.59 3.262-8.919 6.647-6.861 9.968-7.367 22.505-16.415 31.3-3.329 3.237-6.977 5.821-11.379 7.463-1.036.387-6.614 1.565-7.703 1.593l-.101-.276c.728-.886 6.19-4.745 7.97-6.341-14.531 5.547-22.514 4.949-35.336-3.607.716-.96 2.785-.447 4.217-.406 7.082.203 11.272-1.097 17.404-4.315-5.588.53-10.965.216-15.712-3.169-1.131-.807-3.188-1.883-3.758-3.112l.31-.237c14.318 3.811 22.696-1.804 32.093-11.822-1.851.867-12.534 5.496-13.185 2.505 1.187-.716 3.165-1.385 4.1-2.062 14.154-10.241 18.315-23.104 38.054-24.531"/><path fill="#de813d" d="M300.7 108.86c-.524-2.927-1.607-9.57 2.347-10.525l.443.147c.671 2.52-.732 6.137 1.297 9.887 4.852 8.967 13.395 12.793 21.376 17.946 11.028 7.119 22.691 17.223 26.18 30.337.727 2.731.792 7.632.614 10.443-3.992.356-5.285.33-9.103 1.55-.099-2.622-.101-5.432-.476-8.044-1.439-10.025-6.727-17.389-13.854-24.171-8.259-7.859-18.926-12.431-25.503-21.827-.724-1.033-1.423-2.133-2.174-3.129-3.01 3.65-5.752 7.412-8.678 11.118a1855 1855 0 0 0-18.607 23.592 1259 1259 0 0 1-8.143 10.146c-1.167 1.448-3.204 3.833-4.154 5.345.545 1.55 1.002 2.294.597 3.897-.73.874-.963 1.142-1.178 2.29l.157.993c.224 1.895 2.043 9.752-1.16 9.613-2.217-.096-7.111-1.947-9.223-1.465-.664-.221-1.296-.476-1.947-.731-.641-.941-4.459-1.92-5.908-2.474-.378-1.233-1.079-5.176-1.605-5.857-2.081-.507-2.648-.851-4.284-2.101-.771-1.902-.957-3.085-1.06-5.082l-.423-.102c-1.491 1.746-.662 5.497.771 7.201-1.179.587-2.15 3.439-2.29 4.711-.421-1.602-4.348-6.825-5.484-8.88-1.879-3.399-2.238-4.558-3.179-8.391l.802-2.487c1.026-2.481 2.453-4.867 4.548-6.596 1.218-1.006 2.615-1.731 4.105-2.24 2.117-.721 15.422-3.405 17.352-3.191 1.824.203 3.917.768 5.05 2.333 1.078 1.49 1.037 2.649.778 4.4-.36.604-.671 1.143-1.071 1.725.391.821 1.524 3.533 1.931 4.11 1.281 1.814-.004 4.792 1.38 5.665 1.241-.689 7.804-9.837 9.237-11.658A2421 2421 0 0 1 300.7 108.86m-50.648 48.261c1.914.498 3.213.634 4.604 2.03l.659.838c1.401.066 2.432-2.339 3.168-3.491-1.01.023-2.183.012-3.17.127-1.777.142-3.492.273-5.261.496"/><path fill="#b35020" d="M226.851 152.81c1.026-2.481 2.453-4.867 4.548-6.596 1.218-1.006 2.615-1.731 4.105-2.24 2.117-.721 15.422-3.405 17.352-3.191 1.824.203 3.917.768 5.05 2.333 1.078 1.49 1.037 2.649.778 4.4-.36.604-.671 1.143-1.071 1.725-4.984-.091-9.502.226-14.375.27.819 1.355 1.113 1.753 1.662 3.246 1.636 4.445-1.798 8.55 1.653 12.184 1.695 1.785 4.338 3.483 6.359 4.888 2.66-2.248 6.139-5.367 9.95-4.257-.73.874-.963 1.142-1.178 2.29l.157.993c.224 1.895 2.043 9.752-1.16 9.613-2.217-.096-7.111-1.947-9.223-1.465-.664-.221-1.296-.476-1.947-.731-.641-.941-4.459-1.92-5.908-2.474-.378-1.233-1.079-5.176-1.605-5.857-2.081-.507-2.648-.851-4.284-2.101-.771-1.902-.957-3.085-1.06-5.082l-.423-.102c-1.491 1.746-.662 5.497.771 7.201-1.179.587-2.15 3.439-2.29 4.711-.421-1.602-4.348-6.825-5.484-8.88-1.879-3.399-2.238-4.558-3.179-8.391z"/><path fill="#de813d" d="M226.851 152.81c1.026-2.481 2.453-4.867 4.548-6.596 1.218-1.006 2.615-1.731 4.105-2.24 2.117-.721 15.422-3.405 17.352-3.191 1.824.203 3.917.768 5.05 2.333 1.078 1.49 1.037 2.649.778 4.4-11.201-.154-20.658-.012-30.712 5.417-.334.18-.807.001-1.121-.123"/><path fill="#de813d" d="M236.654 160.758c.825-1.305 1.981-1.628 3.412-1.057 2.015.804 2.342 6.564 1.932 8.24-2.081-.507-2.648-.851-4.284-2.101-.771-1.902-.957-3.085-1.06-5.082"/><path fill="#de813d" d="M261.841 168.855c.003.879.027 1.203-.156 2.085-1.111 1.283-3.485 1.958-4.96.984-.528-1.883 3.506-3.501 4.959-4.062z"/><path fill="#de813d" fill-opacity=".165" d="M255.313 156.625c.987-.115 2.16-.104 3.17-.127-.736 1.152-1.767 3.557-3.168 3.491l-.659-.838c-1.391-1.396-2.69-1.532-4.604-2.03 1.769-.223 3.484-.354 5.261-.496"/><path fill="#de813d" d="M285.566 184.157c4.465-1.761 10.319-2.092 15.094-1.951 6.462.191 11.653-3.328 18.036-3.621 6.138-.283 12.45.679 18.517-.681.43 1.758 1.083 3.319 1.488 5.142.248 1.112.665 2.745.812 3.832-2.378 1.054-5.234 2.059-7.706 2.985-4.544 1.7-9.131 4.017-13.928 4.731-3.866.575-8.621.182-12.376.936-4.103.824-8.531 3.571-12.675 4.574-3.939.954-8.202.154-12.164.59-.575-2.813-.994-5.028.626-7.716.546-1.044 1.339-3.139 1.817-4.3-1.899 1.524-4.887 4.676-6.253 6.66 1.511 6.751 2.943 12.43.041 18.875-2.824-2.019-7.732-6.64-10.555-9.041-5.307-4.513-11.465-9.525-16.398-14.374.453-.961 1.143-3.884 2.149-4.07 9.356-1.729 19.012-3.19 28.493-4.023 1.322-.116 3.767.87 4.982 1.452"/><path fill="#b35020" d="M338.701 183.046c.248 1.112.665 2.745.812 3.832-2.378 1.054-5.234 2.059-7.706 2.985-4.544 1.7-9.131 4.017-13.928 4.731-3.866.575-8.621.182-12.376.936-4.103.824-8.531 3.571-12.675 4.574-3.939.954-8.202.154-12.164.59-.575-2.813-.994-5.028.626-7.716.976.308 2.851.138 3.936.108 5.958-.154 11.769-.807 17.35-3.035 1.566-.625 5.529-3.823 6.876-3.011-.3 1.578-2.958 3.153-4.011 4.719l.097.195c1.993-.196 7.303-1.665 9.598-2.267 7.649-2.007 16.076-4.108 23.565-6.641"/><path fill="#b35020" d="M199.48 318.852c3.756-.157 10.731.265 14.446.673-2.768 10.693-10.475 16.287-18.907 22.549-2.664 1.979-5.698 3.914-7.484 6.76 2.327 4.617 8.881 11.328 12.774 14.987 5.204 4.892 10.246 8.596 13.597 15.303 1.508 3.018 2.024 5.431 3.002 8.595-1.547-.306-1.98-.352-3.56-.412-4.259-.044-7.683-.166-11.932-.495-.329-3.309-.216-4.664.502-7.878-4.174-4.011-7.405-9.076-11.474-13.225-3.755-3.829-7.984-7.39-12.207-10.691-1.934-1.512-4.185-2.819-5.949-4.52-.658-.634-1.566-1.588-1.671-2.553-.31-2.822 9.629-12.342 11.625-15.268 2.122-3.11 3.626-7.254 6.097-9.991 2.901-3.212 7.117-3.548 11.141-3.834"/><path fill="#de813d" d="M288.347 273.732c8.413.315 16.884-.014 25.271.399 3.167.156 6.216 3.2 6.92 6.077 1.127 4.602.495 10.355 1.187 14.994.808 5.421 1.9 10.998 3.025 16.34-1.119 2.578-2.602 4.79-3.663 6.985-3.781 7.827-5.126 9.509-10.9 15.718-2.181-3.158-2.695-4.083-4.037-7.679-4.265-13.981 5.725-7.319 6.992-13.441 1.255-6.066-.591-21.339-3.89-26.888-4.253 1.019-10.383 3.482-14.681 4.958-4.973 1.707-9.257 2.926-14.314 4.372 3.233-4.805 5.656-10.642 6.959-16.279.41-1.773.53-3.917 1.131-5.556"/><path fill="#de813d" d="M180.382 196.279c-.548-1.19-1.42-3.743-.868-4.971 1.39-2.895 7.342-5.783 10.294-7.121 12.88-5.84 28.885 1.625 41.837-3.404 5.43-2.108 8.433-1.549 14.02-.221.98.935 3.379 4.759 3.526 6.216.03.298-.17.331-.472.551-2.529.17-7.247-2.643-8.278-1.809.866 2.251 6.545 2.436 4.989 5.443-1.215 2.348-4.222 1.066-5.877.045l-.215-.133c-5.88 1.817-8.252 1.934-14.428.195-5.742 1.739-11.309 3.775-16.948 5.807-.977.353-2.158.829-3.151 1.074-7.417.321-13.442.39-20.695-1.35-.84-.202-2.722-.197-3.734-.322"/><path fill="#de813d" d="M348.221 187.195c3.188 1.518 4.274 1.355 7.654 1.053 2.959 4.341 3.158 8.837 2.853 13.972-.801 13.476-8.786 24.874-17.517 34.64-8.599 9.619-14.49 18.153-8.876 31.089-4.452-1.938-5.218-4.374-5.974-8.913-2.786-2.398-5.888-4.684-8.732-7.06l-26.551-22.593c-2.356-2.31-11.92-8.739-10.989-11.832l.507-.204c1.515.453 40.88 34.772 45.808 38.616.972-11.72 7.955-19.065 14.193-28.381 5.665-8.551 9.719-18.458 9.011-28.879-.211-3.109-2.221-8.845-1.387-11.508"/><path fill="#de813d" d="M364.224 160.204c.872-.1 19.161 3.93 21.079 4.446-6.061 3.407-12.482 6.867-18.282 10.646.346-2.346.484-4.458.65-6.815-2.007.323-4.247.452-6.226.888-5.034 1.109-10.143 1.299-15.188 2.017l-74.065 10.917c-2.321.193-4.81.486-7.074.736-2.977.328-12.788 2.749-15.132 1.097l.087-.402c1.933-1.391 15.526-3.017 18.646-3.449l28.607-3.975c23.238-3.288 46.348-7.019 69.673-10.036-.667-1.69-2.45-4.741-2.775-6.07"/><path fill="#b35020" d="M243.397 194.678c2.031-.853 2.245-1.913 4.009-2.481 1.006.166.732.171 1.616 1.061-5.299 4.749-6.694 4.812-13.608 4.669-2.927-.061-10.707-.101-13.102.932-1.061-.368-2.564-.739-3.685-1.051 1.853 2.435 3.349 4.061 5.555 6.162-6.084.712-11.754 2.861-18.197 2.409-9.573-.671-18.904-3.006-25.603-10.1 1.012.125 2.894.12 3.734.322 7.253 1.74 13.278 1.671 20.695 1.35-5.926 2.763-10.578 2.244-16.771 1.223 11.776 7.769 22.619-1.718 34.327-4.371 4.087-.926 6.271-.119 10.003-.251 5.062-.178 5.996-.746 11.027.126"/><path fill="#de813d" d="m343.432 173.097 8.364-.54c.595 1.06 2.105 4.397 1.822 5.591-1.631.85-3.559-1.822-6.484-1.238.482.641.911.964.759 1.824-.551 3.12-.943 4.948-.958 8.162l-4.816-.407c-.642-1.737-1.073-2.737-1.326-4.575-.405-1.726-.379-2.946-.381-4.69.658-1.078 2.212-3.043 3.02-4.127"/><path fill="#b35020" d="M344.317 180.603c.994-1.426 1.671-2.397 2.817-3.693.482.641.911.964.759 1.824-.551 3.12-.943 4.948-.958 8.162l-4.816-.407c-.642-1.737-1.073-2.737-1.326-4.575.953-.266 2.427-.956 3.524-1.311"/><path fill="#de813d" d="M234.712 172.568c.14-1.272 1.111-4.124 2.29-4.711 4.204 2.088 3.852 1.088 4.948 5.621.373 1.541 1.652 2.245 2.937 3.125q.462.315.928.627l-.002.39c-1.702 1.156-7.393-1.762-11.192.164l-.509-.189c-.297-1.17.285-3.853.6-5.027"/><path fill="#de813d" d="M357.664 178.774c.424-.001.223-.013.673.303.161.942-.295 2.086-.573 3.043-2.577.392-4.126.723-6.749.644-.682-.264-1.051-.663-1.367-1.291l.244-.638c.599-.557 5.985-1.488 7.772-2.061"/><path fill="#de813d" d="M354.524 172.017c3.198.086 5.782 2.309 3.777 5.367-.78.171-1.096.299-1.893.158-1.751-1.192-2.62-3.526-1.884-5.525"/><path fill="#de813d" d="m356.615 183.049.381.109c.424 3.561-4.438 3.47-6.696 2.971-.694-.965-.723-.931-.657-1.87 1.31-1.138 2.931-.457 4.615-.641.758-.083 1.62-.353 2.357-.569"/><path fill="#de813d" d="M249.511 176.272c.651.255 1.283.51 1.947.731-.58 1.476-1.143 2.847-2.828 3.168-.822-.329-.539-.051-.886-.85.112-1.443.754-1.994 1.767-3.049"/></svg>